<?xml version="1.0" encoding="UTF-8"?>
<svg id="Layer_2" data-name="Layer 2" xmlns="http://www.w3.org/2000/svg" viewBox="0 0 61.87 78.25">
  <defs>
    <style>
      .cls-1 {
        fill: #ff343c;
      }
    </style>
  </defs>
  <g id="Layer_1-2" data-name="Layer 1">
    <path class="cls-1" d="M30.94,0C13.85,0,0,13.85,0,30.94c0,.19.01.38.01.57.05,1.08.23,3.68,1.02,7.38,2.18,10.24,8.94,20.85,29.9,39.37,20.96-18.51,27.72-29.12,29.9-39.37.79-3.71.98-6.3,1.02-7.38,0-.19.01-.38.01-.57,0-17.09-13.85-30.94-30.93-30.94ZM30.94,42.46c-6.36,0-11.53-5.16-11.53-11.53s5.16-11.53,11.53-11.53,11.53,5.16,11.53,11.53c0,6.37-5.16,11.53-11.53,11.53Z"/>
  </g>
</svg>