<?xml version="1.0" encoding="UTF-8"?>
<svg id="Layer_1" data-name="Layer 1" xmlns="http://www.w3.org/2000/svg" viewBox="0 0 468.45 387.87">
  <defs>
    <style>
      .cls-1, .cls-2, .cls-3 {
        fill: #ff343c;
        isolation: isolate;
      }

      .cls-2 {
        opacity: .4;
      }

      .cls-3 {
        opacity: .6;
      }
    </style>
  </defs>
  <g id="Layer_1-2" data-name="Layer 1-2">
    <g>
      <path class="cls-2" d="M260.9,155.18C193.71,106.36,126.36,57.74,58.87,9.35,50.74,3.51,44.14.44,39.04.12,9.62-1.75,0,18.8,0,44.05v299.85c0,5.05.28,9.28.83,12.65,4.62,28.76,32.85,39.91,55.83,23.32,68.14-49.16,136.2-98.46,204.17-147.89,30.67-22.3,30.78-54.51.06-76.81h.01,0Z"/>
      <path class="cls-3" d="M353.08,154.89C285.77,106.23,218.3,57.79,150.69,9.55c-8.14-5.82-14.76-8.88-19.87-9.19-29.41-1.8-38.96,18.78-38.9,44.02.22,99.95.46,199.88.74,299.85,0,5.05.3,9.28.87,12.65,4.69,28.75,32.94,39.82,55.89,23.19,68.03-49.33,135.96-98.79,203.8-148.4,30.62-22.38,30.65-54.58-.13-76.81h0v.03Z"/>
      <path class="cls-1" d="M445.44,155.18C378.24,106.36,310.89,57.74,243.41,9.35,235.28,3.51,228.68.43,223.58.12c-29.41-1.87-39.01,18.68-39.01,43.93-.03,99.95-.03,199.9,0,299.85,0,5.05.28,9.28.83,12.65,4.62,28.76,32.85,39.91,55.83,23.32,68.14-49.16,136.2-98.46,204.17-147.89,30.67-22.3,30.78-54.51.06-76.81h-.02Z"/>
    </g>
  </g>
</svg>