<?xml version="1.0" encoding="UTF-8"?>
<svg id="Layer_1" data-name="Layer 1" xmlns="http://www.w3.org/2000/svg" viewBox="0 0 512 640">
  <defs>
    <style>
      .cls-1 {
        fill: #ff343c;
        stroke-width: 0px;
      }
    </style>
  </defs>
  <path class="cls-1" d="M326,176v-70H26v190c0,16.57,13.43,30,30,30h240c16.57,0,30-13.43,30-30v-120Z"/>
  <path class="cls-1" d="M406,256v-70h-60v130c0,16.5-13.5,30-30,30H106v30c0,16.57,13.43,30,30,30h240c16.57,0,30-13.43,30-30v-120Z"/>
  <path class="cls-1" d="M56,26h240c16.57,0,30,13.43,30,30v30H26v-30c0-16.57,13.43-30,30-30Z"/>
  <path class="cls-1" d="M346,106h30c16.57,0,30,13.43,30,30v30h-60v-60Z"/>
  <path class="cls-1" d="M426,396c0,16.5-13.5,30-30,30h-210v30c0,16.57,13.43,30,30,30h240c16.57,0,30-13.43,30-30v-190h-60v130Z"/>
  <path class="cls-1" d="M426,186h30c16.57,0,30,13.43,30,30v30h-60v-60Z"/>
</svg>