<?xml version="1.0" encoding="UTF-8"?>
<svg id="Layer_2" data-name="Layer 2" xmlns="http://www.w3.org/2000/svg" viewBox="0 0 85.15 85.15">
  <defs>
    <style>
      .cls-1 {
        fill: #ff343c;
        stroke-width: 0px;
      }
    </style>
  </defs>
  <g id="Layer_1-2" data-name="Layer 1">
    <path class="cls-1" d="M68.01,42.57c-.04-8.99-4.82-17.29-12.57-21.84-7.76-4.55-17.34-4.66-25.2-.3-7.86,4.36-12.84,12.54-13.09,21.53.14.4.14.83,0,1.23.16,6.53,2.83,12.75,7.45,17.36,4.62,4.62,10.83,7.29,17.36,7.45.4-.14.83-.14,1.23,0,6.64-.16,12.94-2.91,17.58-7.66,4.64-4.75,7.23-11.12,7.24-17.76h0ZM42.57,40.09c5.36,0,9.72,3.8,9.72,8.47,0,4.05-3.27,7.44-7.64,8.28v3.2h0c0,1.15-.93,2.08-2.08,2.08s-2.08-.93-2.08-2.09v-3.2c-4.36-.84-7.64-4.23-7.64-8.28,0-1.15.93-2.09,2.08-2.09s2.09.93,2.09,2.09c0,2.38,2.49,4.31,5.55,4.31s5.55-1.94,5.55-4.31-2.49-4.3-5.55-4.3c-5.36,0-9.72-3.8-9.72-8.48,0-4.05,3.27-7.44,7.64-8.27v-2.38c0-1.15.93-2.09,2.08-2.09s2.08.93,2.08,2.09v2.39c4.36.83,7.64,4.17,7.64,8.27,0,1.15-.93,2.08-2.08,2.08s-2.09-.93-2.09-2.08c0-2.38-2.49-4.31-5.55-4.31s-5.55,1.94-5.55,4.31,2.49,4.31,5.55,4.31ZM44.66,0c10.57.54,20.56,4.98,28.03,12.46,7.48,7.48,11.92,17.47,12.46,28.03h-13.04c-.52-7.11-3.57-13.8-8.61-18.84-5.04-5.04-11.73-8.1-18.84-8.61V0ZM0,40.49c.54-10.57,4.98-20.56,12.46-28.03C19.94,4.98,29.93.54,40.49,0v13.04c-7.11.52-13.8,3.57-18.84,8.61-5.04,5.04-8.1,11.73-8.61,18.84H0ZM85.14,44.66h0c-.54,10.56-4.98,20.55-12.46,28.03-7.48,7.48-17.47,11.92-28.03,12.46v-13.04c7.11-.52,13.8-3.57,18.84-8.61,5.04-5.04,8.1-11.73,8.61-18.84h13.04ZM40.49,85.15c-10.57-.54-20.56-4.98-28.03-12.46C4.98,65.21.54,55.22,0,44.66h13.04c.52,7.11,3.57,13.8,8.61,18.84,5.04,5.04,11.73,8.1,18.84,8.61v13.04Z"/>
  </g>
</svg>