<?xml version="1.0" encoding="UTF-8"?>
<svg id="Layer_1" data-name="Layer 1" xmlns="http://www.w3.org/2000/svg" viewBox="0 0 110 135">
  <defs>
    <style>
      .cls-1 {
        fill: #ff343c;
        stroke: #ff343c;
        stroke-miterlimit: 10;
        stroke-width: 2px;
      }
    </style>
  </defs>
  <path class="cls-1" d="M89.1,25.9c-7.9-7.9-20.6-7.9-28.4,0l-16.9,16.8c-1,1-1.8,2-2.5,3.1l-.1.2c-.9,1.3-1.6,2.8-2.1,4.2-.8,2.1-1.2,4.4-1.2,6.8,0,1.1.1,2.2.3,3.3.1.8.3,1.6.5,2.4.9,3.2,2.7,6.1,5.1,8.5.7.7,1.5,1.3,2.3,1.9,1.1.9,2.4,1.6,3.7,2.2.5.2,1,.5,1.6.6l6.7-6.7h0c-2.4,0-4.8-.7-6.8-2-.7-.4-1.3-1-1.9-1.5-.7-.7-1.3-1.5-1.8-2.4-1.4-2.4-2-5.1-1.6-7.8.1-.9.3-1.9.7-2.8.2-.6.5-1.2.9-1.8.4-.7.9-1.4,1.4-2,.2-.2.3-.4.5-.6l16.9-16.9c2.3-2.3,5.4-3.6,8.7-3.6,2.6,0,5,.8,7.1,2.2.6.4,1.1.9,1.6,1.4,1.7,1.7,2.9,3.9,3.4,6.3.2.8.2,1.6.2,2.4,0,1.1-.1,2.1-.4,3.1-.5,2.1-1.6,4-3.2,5.6l-2.8,2.8-6,5.8c.1.4.2.8.2,1.1.6,3.3.6,6.7-.2,9.9l14.1-14.1c1.5-1.5,2.8-3.2,3.7-5.1,3.2-6.2,2.9-13.7-.8-19.6-.7-1.3-1.7-2.6-2.9-3.7h0Z"/>
  <path class="cls-1" d="M15,79.9c0,2.7.5,5.3,1.5,7.7,1,2.4,2.5,4.6,4.4,6.5,3.2,3.2,7.3,5.2,11.8,5.7.1,0,.3.1.4.1h.4c.5,0,1.1.1,1.6.1,5.4,0,10.4-2.1,14.2-5.9l16.8-16.8c1-1,1.8-2,2.5-3.1,3.3-5,4.3-11.1,2.6-16.9-.9-3.2-2.7-6.1-5.1-8.5-1.7-1.7-3.6-3-5.7-4-.6-.3-1.2-.5-1.8-.8l-6.7,6.7h.7c2.9.2,5.8,1.4,8,3.5,3.4,3.4,4.5,8.5,2.8,13-.6,1.6-1.5,3.1-2.8,4.3l-16.8,17c-1.7,1.7-3.9,2.9-6.2,3.3-.8.2-1.6.2-2.4.2-2.1,0-4-.5-5.8-1.4-.1,0-.1-.1-.2-.1-1-.6-1.9-1.2-2.7-2-2.3-2.3-3.6-5.4-3.6-8.7s1.3-6.4,3.6-8.7l8.6-8.6c-.4-1.9-.7-3.8-.7-5.7,0-1.6.2-3.1.5-4.6.1-.2.1-.5.1-.8l-14.1,14.2c-3.8,3.8-5.9,8.9-5.9,14.3h0Z"/>
</svg>